#!OML:ASF F:\VICON\USERDATA\INSTALL\Justin_Nancy\Justin_Nancy.ASF
:FULLY-SPECIFIED
:DEGREES
16
root 0.752359 17.7519 -15.6106 5.53879 -3.10718 -1.06882
lowerback 4.15276 -0.0701969 -0.366857
upperback -1.06909 -0.0216249 2.79698
thorax -3.43134 0.026666 3.09561
lowerneck -15.8421 -4.67181 -10.7113
upperneck 19.2793 -5.12275 6.16273
head 9.11451 -2.54257 3.23537
rclavicle -1.98785e-015 1.19271e-014
rhumerus -34.0954 -9.92382 -78.4998
rradius 32.9258
rwrist 4.84652
rhand -12.0423 13.9164
rfingers 7.12502
rthumb 14.0162 -15.591
lclavicle -1.98785e-015 1.19271e-014
lhumerus -35.116 13.1672 82.3045
lradius 30.3451
lwrist -4.34137
lhand -20.6756 17.8921
lfingers 7.12502
lthumb 5.68755 47.7958
rfemur -10.2315 5.58407 19.4965
rtibia 20.9077
rfoot -10.9086 -8.03142
rtoes 7.37083
lfemur -11.8028 -4.77639 -16.9694
ltibia 23.881
lfoot -13.6558 10.2217
ltoes -1.59232
17
root 0.751439 17.7543 -15.6123 5.58222 -3.15514 -1.16236
lowerback 4.09704 -0.0684435 -0.287791
upperback -1.06613 -0.0147712 2.82798
thorax -3.39725 0.028431 3.08228
lowerneck -15.8411 -4.6672 -10.7198
upperneck 19.2938 -5.11652 6.16994
head 9.11919 -2.53973 3.24029
rclavicle -1.88845e-015 -1.59028e-014
rhumerus -34.0643 -9.82444 -78.5416
rradius 32.936
rwrist 4.79455
rhand -12.069 13.7938
rfingers 7.12502
rthumb 13.9905 -15.7155
lclavicle -1.88845e-015 -1.59028e-014
lhumerus -35.1433 13.1927 82.2625
lradius 30.2925
lwrist -4.64793
lhand -20.4028 18.5775
lfingers 7.12502
lthumb 5.95091 48.474
rfemur -10.2874 5.5948 19.5924
rtibia 20.8981
rfoot -10.8842 -7.99387
rtoes 7.92568
lfemur -11.8688 -4.54782 -16.8658
ltibia 23.895
lfoot -13.612 10.074
ltoes -1.79596
18
root 0.751018 17.7559 -15.6157 5.63485 -3.11998 -1.15948
lowerback 4.08197 -0.0686945 -0.284115
upperback -1.1057 -0.0142017 2.82752
thorax -3.42971 0.0292278 3.07991
lowerneck -15.7582 -4.65734 -10.7432
upperneck 19.2688 -5.11175 6.19864
head 9.09639 -2.53738 3.25557
rclavicle -7.7526e-015 -2.14687e-014
rhumerus -34.0958 -9.86198 -78.511
rradius 32.8936
rwrist 4.91289
rhand -12.0784 13.889
rfingers 7.12502
rthumb 13.9814 -15.6209
lclavicle -7.7526e-015 -2.14687e-014
lhumerus -35.2049 13.0965 82.2913
lradius 30.2883
lwrist -4.77599
lhand -20.3073 18.8043
lfingers 7.12502
lthumb 6.04317 48.6981
rfemur -10.3342 5.62305 19.5893
rtibia 20.8735
rfoot -10.8738 -8.01103
rtoes 8.13448
lfemur -11.9568 -4.66044 -16.858
ltibia 23.9238
lfoot -13.5789 10.1502
ltoes -2.05408
19
root 0.75053 17.7555 -15.6189 5.60239 -3.11195 -1.085
lowerback 4.13354 -0.0869958 -0.335169
upperback -1.11341 -0.040887 2.8183
thorax -3.46529 0.0172814 3.10147
lowerneck -15.7176 -4.66721 -10.8623
upperneck 19.2359 -5.11522 6.27279
head 9.08353 -2.54033 3.3007
rclavicle 4.22417e-015 -1.03368e-014
rhumerus -34.0275 -9.8287 -78.4936
rradius 32.738
rwrist 4.9541
rhand -12.1041 14.0182
rfingers 7.12502
rthumb 13.9567 -15.4934
lclavicle 4.22417e-015 -1.03368e-014
lhumerus -35.2133 13.0979 82.316
lradius 30.2717
lwrist -4.833
lhand -20.6657 18.1433
lfingers 7.12502
lthumb 5.69711 48.0467
rfemur -10.2929 5.59795 19.5092
rtibia 20.8577
rfoot -10.8345 -7.98357
rtoes 8.52585
lfemur -11.9328 -4.66546 -16.9391
ltibia 23.9491
lfoot -13.6464 10.094
ltoes -1.77758
